PathFileType	4	(X/Y/Z)	RBDS020\RBDS020runT35.trc
DataRate	CameraRate	NumFrames	NumMarkers	Units	OrigDataRate	OrigDataStartFrame	OrigNumFrames
150.000000	150.000000	4	33	mm	150.000000	3937	4500
Frame#	Time	L.ASIS			L.Heel.Bottom			L.Heel.Lateral			L.Heel.Top			L.Iliac.Crest			L.MT1			L.MT5			L.PSIS			L.Shank.Bottom.Lateral			L.Shank.Bottom.Medial			L.Shank.Top.Lateral			L.Shank.Top.Medial			L.Thigh.Bottom.Lateral			L.Thigh.Bottom.Medial			L.Thigh.Top.Lateral			L.Thigh.Top.Medial			R.ASIS			R.ASY			R.Heel.Bottom			R.Heel.Lateral			R.Heel.Top			R.Iliac.Crest			R.MT1			R.MT5			R.PSIS			R.Shank.Bottom.Lateral			R.Shank.Bottom.Medial			R.Shank.Top.Lateral			R.Shank.Top.Medial			R.Thigh.Bottom.Lateral			R.Thigh.Bottom.Medial			R.Thigh.Top.Lateral			R.Thigh.Top.Medial			
		X1	Y1	Z1	X2	Y2	Z2	X3	Y3	Z3	X4	Y4	Z4	X5	Y5	Z5	X6	Y6	Z6	X7	Y7	Z7	X8	Y8	Z8	X9	Y9	Z9	X10	Y10	Z10	X11	Y11	Z11	X12	Y12	Z12	X13	Y13	Z13	X14	Y14	Z14	X15	Y15	Z15	X16	Y16	Z16	X17	Y17	Z17	X18	Y18	Z18	X19	Y19	Z19	X20	Y20	Z20	X21	Y21	Z21	X22	Y22	Z22	X23	Y23	Z23	X24	Y24	Z24	X25	Y25	Z25	X26	Y26	Z26	X27	Y27	Z27	X28	Y28	Z28	X29	Y29	Z29	X30	Y30	Z30	X31	Y31	Z31	X32	Y32	Z32	X33	Y33	Z33	

3938	26.24666666666667	2272.720505166081	1035.331844206487	879.8922764151762	1625.039478281419	284.18844008247	953.1368129374576	1651.167583995088	270.2548853995594	907.5485752134948	1670.776597242462	297.9193425115317	947.4952826815683	2231.289256988858	1094.569290313301	855.360255960358	1745.010861141281	99.59007806304849	981.6197759010533	1706.919069929643	119.4256533354485	879.7870167740025	2116.034448637798	1094.318059572606	949.8499581211373	1765.789493912274	304.8820862416823	881.4032936046822	1738.999922615732	332.5555476049831	921.939852420495	1811.029971364664	370.1428143219748	868.531812438325	1786.021274327551	397.1280093430776	907.7985600105196	2084.431628238777	718.6688270421633	831.2992554571059	2026.681857179793	742.0737610560315	869.3490190273261	2115.783640542986	822.7023653394862	817.0840025891337	2062.569849564247	844.6214391627268	857.9158048900197	2266.246193588732	1043.354827119227	1104.499650924485	2528.55710584373	141.2989213537262	1068.760246309844	2353.822166564456	52.12734438579797	1062.688430601407	2379.111821911372	69.16440914237474	1106.950293411131	2353.04620215726	94.71942776952132	1067.279763963362	2211.778564978312	1095.951977309592	1145.59533801413	2554.28318290221	113.2501628044485	1017.28530632004	2543.415817675464	87.68878317796371	1123.656535858351	2116.071537975282	1090.48101688559	1048.791801405961	2404.012342128749	228.8386206739383	1127.536067254345	2359.829100092464	229.2706918599376	1100.882947567382	2393.977615986313	311.8863289355917	1141.862412993497	2347.038388308161	307.5094017686565	1116.501094822875	2299.607031631058	670.0939483624468	1149.889626436804	2250.799693247761	643.9063719564538	1105.297844860101	2241.588071121174	764.0523461453362	1157.234554684043	2195.948995471789	739.1558872631209	1113.892459708014	
3939	26.25333333333333	2273.598460267134	1035.303241272353	880.3720318781918	1619.83621935806	298.3221120786239	953.1539770487046	1645.442196837884	283.3120138772633	907.661081950662	1666.253359551108	309.9338811121565	947.8668091471017	2231.650203470578	1095.159909617649	855.3357457618156	1731.87005646835	108.2793360794827	981.6292717599919	1695.20523701046	129.8885628130159	879.8193877945528	2116.549071650581	1094.258176880699	949.1548691905451	1760.989715145732	312.5909773612063	881.7459825953396	1735.225109378561	341.2987868049186	922.2601649591109	1808.589794596837	376.0681327888467	868.7815876535591	1784.559900028691	404.0700405069794	907.9602641909994	2088.264391033801	716.9332025737525	831.3295706246774	2029.754318187562	739.9545953798354	868.5410496840401	2118.803033779105	821.0376867730756	816.9601849185328	2064.890767612756	842.7140230591835	856.9190790249131	2266.506124234421	1043.069160498222	1104.909123665344	2539.937765263795	144.4643202176225	1068.459182564574	2369.511138839986	47.1577002433383	1061.188038005267	2393.910578890453	64.83210932232063	1105.569121494827	2366.660718168527	89.68170192481259	1066.20701086542	2211.991469460209	1095.532839385895	1145.498349453389	2567.333556410279	118.3674114216345	1016.746948321278	2557.394023994671	90.85676151986364	1122.86691687009	2116.185288375219	1090.099241865548	1048.270163445881	2411.636199235582	226.5499503069078	1127.096527323196	2367.621368585311	225.391976620681	1100.107305579225	2398.285220474215	309.1475792107914	1141.640963557533	2351.724688451309	303.0402799325455	1115.922037806499	2295.258886849978	667.8016336704831	1151.349520934878	2247.027770811234	642.7341383506161	1105.499188050025	2238.404599843158	762.5515844902875	1158.228201183258	2193.402091376365	738.6650030446358	1113.662186659413	
3940	26.26	2274.328018160035	1034.893688630563	880.849651001862	1615.618279613143	311.9680232789742	953.677109677275	1640.671008244415	296.1022292469702	908.2425065964843	1662.557282155577	321.6166728974172	948.7533618521321	2231.742227882264	1095.110127533796	855.2664226404336	1720.247265014585	117.3194318683403	981.6162864871535	1684.82682713185	140.7743520015954	879.8680992085586	2116.915975881024	1093.391737161448	948.4299025315933	1757.073249115742	320.2931597738664	882.3170625433174	1732.506909208158	350.0553369309086	922.8525408873045	1807.114754593558	381.8011643152714	869.1689185728798	1784.237409635729	410.8355486725356	908.3242314604769	2092.819769449034	714.2576326033544	831.2889220519839	2033.479856878751	736.6314387808785	867.7093945678439	2122.103969621134	818.5506949952511	816.8445079492076	2067.462888592536	839.7413341364365	855.9622536134659	2266.597966679461	1042.52316318193	1105.449920063633	2548.363521769837	146.8267174529008	1068.437223027867	2381.727450523035	43.02930405768625	1059.450675402892	2405.202503336256	61.12167587086697	1104.029128011658	2377.173332176767	85.43220730348997	1064.860923069397	2211.924570784721	1094.728125447872	1145.449367485094	2577.241407360548	122.3996182767901	1016.601505859996	2567.734304940092	93.19372472811639	1122.430327982921	2116.081094325938	1089.069314266243	1047.6856488638	2416.994115456802	224.3033676820301	1126.517146598188	2373.250816707299	221.8701570284396	1099.108373478323	2400.91669306758	306.4544963446222	1141.239098595739	2354.795064599414	298.955677350277	1115.062375443578	2291.307111229281	665.5419930406404	1152.619737049066	2243.592457275774	641.4722971735081	1105.649217665261	2235.511748071382	760.9542965620723	1159.160762934289	2191.070343594587	737.9847374012436	1113.519294876735	
3941	26.26666666666667	2274.927794943091	1034.098088055734	881.3155714868045	1612.597179331988	325.0946459816428	954.7685222608162	1637.039378184786	308.6000755246278	909.3364600688682	1659.918124494051	332.9311907134432	950.1728494292297	2231.629138266556	1094.41629545466	855.1620918358552	1710.283138290069	126.550687695417	981.5123684531924	1675.865524226111	151.9830261791501	879.9216852062352	2117.18036655267	1091.733305781355	947.6912602158786	1754.18108519295	327.9399940860783	883.0926068815978	1730.977473832416	358.7231937642811	923.7051451551613	1806.673062744342	387.3322628142657	869.6737668577258	1785.113693298307	417.3624768357443	908.8839128988506	2097.973012227005	710.7400293166551	831.1688378776104	2037.798002268215	732.215407526178	866.9191816685911	2125.604480098721	815.3312881859032	816.7396327901304	2070.254691173248	835.7945731946047	855.120087777529	2266.536451627477	1041.714830281372	1106.104180386006	2553.830088036309	148.0385758639826	1068.658705862037	2390.227648890482	39.54588101254835	1057.4820392309	2412.780961200325	57.83289350020137	1102.338943488515	2384.40095132854	81.80724492926474	1063.238573049261	2211.592787613403	1093.57144130019	1145.451711389346	2583.97761008421	124.9255737423034	1016.80322106138	2574.357160413029	94.3161362118193	1122.319962164863	2115.807026537379	1087.430633725442	1047.050850600991	2420.0538581417	221.8897382963713	1125.816037247639	2376.648626773728	218.5191955172216	1097.929960478215	2401.87941288289	303.6529376463315	1140.687330827464	2356.209640459169	295.1245145884046	1113.982738538745	2287.792692398577	663.2875777211721	1153.591087946296	2240.482694329203	640.0748519729435	1105.704763298246	2232.951780654904	759.2492151704821	1159.930445358096	2188.947393181582	737.084930419722	1113.41598227252	
